<svg width="255px" height="61px" viewBox="0 0 255 61" version="1.1" xmlns="http://www.w3.org/2000/svg" xmlns:xlink="http://www.w3.org/1999/xlink">
    <!-- Generator: Sketch 46.2 (44496) - http://www.bohemiancoding.com/sketch -->
    <desc>Created with Sketch.</desc>
    <defs/>
    <g id="home" stroke="none" stroke-width="1" fill="none" fill-rule="evenodd">
        <g id="Desktop-HD" transform="translate(-374.000000, -23.000000)">
            <g id="main-picture">
                <g id="semantify-logo2" transform="translate(376.000000, 25.000000)">
                    <g id="Group" stroke-width="2.4">
                        <polygon id="Shape" stroke="#F15A24" opacity="0.3" points="0.251516198 28.5013786 0.406024593 4.88681688 23.9640565 5.04350761 23.8095481 28.6575466"/>
                        <rect id="Rectangle-path" stroke="#C1272D" opacity="0.5" transform="translate(11.919722, 45.108504) rotate(90.378147) translate(-11.919722, -45.108504) " x="0.139732675" y="33.3001822" width="23.5599793" height="23.6166443"/>
                        <polygon id="Shape" stroke="#F7931E" opacity="0.3" points="28.3369701 57.0268032 28.4914785 33.4094971 52.0515966 33.5656651 51.8970882 57.1828406"/>
                        <polygon id="Shape" stroke="#C1272D" points="34.0117961 27.5710356 29.7597512 4.34473749 52.9347066 0.0831153536 57.1863604 23.3081066"/>
                    </g>
                    <g id="Group" transform="translate(78.990950, 9.158371)" fill-rule="nonzero" fill="#FFFFFF">
                        <g id="Shape">
                            <path d="M0.0986138243,18.4190207 L4.49397285,17.7546128 C4.68102606,18.5992824 5.06021969,19.2405433 5.63181464,19.6782663 C6.2031487,20.1162479 7.00340771,20.3349154 8.0320699,20.3349154 C9.16456358,20.3349154 10.0166079,20.1290498 10.5882028,19.7169307 C10.9724837,19.4286931 11.164885,19.0424365 11.164885,18.558161 C11.164885,18.2285433 11.0609231,17.9555645 10.8531297,17.7392246 C10.6349009,17.5332297 10.1463973,17.3427524 9.38800999,17.1675339 C5.85500016,16.3950207 3.61570978,15.6894914 2.67026931,15.0506875 C1.36102731,14.1648965 0.706341083,12.933841 0.706341083,11.3577797 C0.706341083,9.93624687 1.27258792,8.74139893 2.40521205,7.77297726 C3.53757528,6.80494352 5.29384054,6.32053872 7.67335559,6.32053872 C9.9384734,6.32053872 11.6218218,6.68636392 12.7232704,7.41762637 C13.8245885,8.14914746 14.5831063,9.23071761 14.9988235,10.6624661 L10.8683913,11.4194618 C10.691643,10.7809164 10.3565386,10.2914684 9.86307817,9.95163506 C9.36948728,9.61167237 8.66536371,9.44175569 7.75122921,9.44175569 C6.59786488,9.44175569 5.77177844,9.601586 5.27296989,9.92072936 C4.94034389,10.1474143 4.77416134,10.4409537 4.77416134,10.8014771 C4.77416134,11.1105341 4.91960368,11.3731679 5.21061882,11.5895078 C5.605335,11.8780041 6.96910158,12.2848214 9.30204899,12.8102182 C11.6346051,13.3356151 13.2634289,13.9794623 14.1882596,14.7416305 C15.1025246,15.5141436 15.5598527,16.5906706 15.5598527,17.9709527 C15.5598527,19.474987 14.9259067,20.7675952 13.6582756,21.8491653 C12.3903835,22.9307355 10.5148947,23.4715206 8.03167858,23.4715206 C5.77673522,23.4715206 3.99216414,23.0184094 2.67783492,22.1117991 C1.3635057,21.2055768 0.503895772,19.9745213 0.0986138243,18.4190207 Z"/>
                            <path d="M28.979942,17.8782356 L33.3441254,18.6044549 C32.7830963,20.1908612 31.8970067,21.3986404 30.6866394,22.2277925 C29.4760112,23.0570739 27.9614542,23.4716499 26.1432292,23.4716499 C23.2649056,23.4716499 21.1346644,22.539565 19.7528969,20.6750074 C18.6618836,19.1815768 18.116377,17.2964585 18.116377,15.0197818 C18.116377,12.3003389 18.8334143,10.1706905 20.2673584,8.63070739 C21.7013025,7.09085357 23.5144403,6.32066803 25.7069022,6.32066803 C28.1695085,6.32066803 30.1124356,7.12680245 31.5362053,8.73881268 C32.9597142,10.3510815 33.6403582,12.8205633 33.5780072,16.1476458 L22.6052626,16.1476458 C22.6364381,17.4354695 22.9895435,18.4371245 23.6651003,19.1529987 C24.3403963,19.8691316 25.1820053,20.2269394 26.1900577,20.2269394 C26.8759195,20.2269394 27.4526017,20.0415052 27.9201042,19.6706369 C28.3876068,19.2997685 28.7407121,18.7024738 28.979942,17.8782356 Z M29.2293462,13.4900143 C29.1981707,12.233355 28.8708928,11.2781232 28.2473821,10.6238017 C27.6240019,9.96973882 26.8653537,9.64270739 25.971829,9.64270739 C25.0156923,9.64270739 24.2262599,9.98784258 23.6027493,10.6778543 C22.979369,11.3681247 22.6727009,12.3055114 22.6831362,13.4900143 L29.2293462,13.4900143 L29.2293462,13.4900143 Z"/>
                            <path d="M36.8198714,6.69153642 L40.8566466,6.69153642 L40.8566466,8.93200562 C42.3007652,7.19132941 44.0206372,6.32066803 46.015741,6.32066803 C47.0755787,6.32066803 47.9951918,6.53700792 48.7744497,6.96968771 C49.5537076,7.40236749 50.1928713,8.05655967 50.6915494,8.93200562 C51.4187611,8.05655967 52.2033671,7.40223818 53.0449761,6.96968771 C53.8867156,6.53700792 54.7853275,6.32066803 55.7414642,6.32066803 C56.9570491,6.32066803 57.9858418,6.565586 58.8275812,7.05464605 C59.6690598,7.54409405 60.2977881,8.26255456 60.7133749,9.21015691 C61.0148254,9.9107723 61.165355,11.0438088 61.165355,12.6093959 L61.165355,23.1009108 L56.7856489,23.1009108 L56.7856489,13.722001 C56.7856489,12.0946026 56.6349889,11.0438088 56.3336689,10.5698784 C55.9285174,9.95189369 55.3050067,9.6428367 54.4633977,9.6428367 C53.8500615,9.6428367 53.2733793,9.82827089 52.7332208,10.19901 C52.1928014,10.5698784 51.8031724,11.1132497 51.5643339,11.8291239 C51.3252345,12.5452568 51.20575,13.6755778 51.20575,15.2207335 L51.20575,23.1009108 L46.826044,23.1009108 L46.826044,14.1082576 C46.826044,12.5117649 46.7481704,11.4815318 46.5922927,11.0180756 C46.436415,10.5546195 46.1948373,10.2096136 45.8675594,9.98279939 C45.5402815,9.75637312 45.0959975,9.64296601 44.5349683,9.64296601 C43.8594115,9.64296601 43.2515538,9.82335702 42.7113952,10.1837511 C42.1709758,10.5445331 41.7840861,11.0644988 41.5502044,11.7442949 C41.3164531,12.4242203 41.1995775,13.5520843 41.1995775,15.1281457 L41.1995775,23.1010401 L36.8198714,23.1010401 L36.8198714,6.69153642 L36.8198714,6.69153642 Z"/>
                            <path d="M68.8028391,11.6976131 L64.8282846,10.9869113 C65.275047,9.4006343 66.044,8.22634705 67.1351437,7.46392027 C68.226157,6.70175211 69.8471543,6.32053872 71.9980053,6.32053872 C73.9514982,6.32053872 75.4060521,6.54993918 76.3621888,7.00809353 C77.3180646,7.46650652 77.9908822,8.04867161 78.3806416,8.75407156 C78.7702706,9.45973013 78.9650198,10.7550539 78.9650198,12.6400429 L78.9183217,17.7080603 C78.9183217,19.1504125 78.9884993,20.2138789 79.128724,20.8987181 C79.2689487,21.5839453 79.5312667,22.3179233 79.9158084,23.1005229 L75.5828004,23.1005229 C75.4684032,22.8122852 75.3280481,22.3846486 75.1618655,21.8181303 C75.0890791,21.5607984 75.0372938,21.3907524 75.0061183,21.308251 C74.2580359,22.029427 73.4577769,22.5702121 72.605863,22.9306062 C71.7538187,23.2911296 70.844641,23.4713913 69.8783298,23.4713913 C68.1741108,23.4713913 66.8312149,23.0132369 65.8492507,22.0962816 C64.8672866,21.179585 64.3763046,20.0206859 64.3763046,18.6197138 C64.3763046,17.6926721 64.5996205,16.865977 65.0465133,16.1397577 C65.4932757,15.4135385 66.1193952,14.8573652 66.924611,14.4709793 C67.7298268,14.0847227 68.8908872,13.7474756 70.4081835,13.4589793 C72.4550726,13.0780245 73.8733637,12.7225443 74.6631874,12.3927973 L74.6631874,11.9601176 C74.6631874,11.125793 74.4551331,10.5309553 74.0398071,10.1754751 C73.6239594,9.8201242 72.8396143,9.64244876 71.68625,9.64244876 C70.9068616,9.64244876 70.2990039,9.79452032 69.8626769,10.0982755 C69.4262194,10.4024186 69.0728532,10.9354449 68.8028391,11.6976131 Z M74.6633178,15.2206041 C74.1021582,15.4060383 73.2138511,15.6275507 71.9980053,15.885012 C70.7822899,16.1426026 69.987379,16.3948914 69.613403,16.642137 C69.0418081,17.0439111 68.7561411,17.5537904 68.7561411,18.1719044 C68.7561411,18.7798027 68.9845442,19.3051996 69.4420028,19.7479658 C69.8990701,20.1909905 70.4809699,20.4123736 71.1877023,20.4123736 C71.9772651,20.4123736 72.7306956,20.1550417 73.4476024,19.6397312 C73.9775865,19.2484314 74.3254742,18.7694577 74.4919176,18.2028101 C74.6061844,17.8319417 74.6633178,17.1265418 74.6633178,16.0859637 L74.6633178,15.2206041 L74.6633178,15.2206041 Z"/>
                            <path d="M98.3388535,23.1007815 L93.9591474,23.1007815 L93.9591474,14.726113 C93.9591474,12.9545311 93.8656208,11.8084339 93.6786981,11.2882096 C93.4916449,10.7682438 93.187716,10.3638835 92.7669115,10.0753872 C92.3459766,9.7871495 91.8396024,9.64270739 91.2472673,9.64270739 C90.4887496,9.64270739 89.8081055,9.84883159 89.2055959,10.2606921 C88.6028254,10.6728111 88.1898474,11.2186394 87.966401,11.8985648 C87.7428242,12.5783608 87.6314271,13.8352788 87.6314271,15.6686721 L87.6314271,23.1007815 L83.251721,23.1007815 L83.251721,6.69153642 L87.3198022,6.69153642 L87.3198022,9.10192231 C88.7639207,7.24770969 90.5824066,6.32066803 92.7748685,6.32066803 C93.7411796,6.32066803 94.6243994,6.49330028 95.424528,6.83830616 C96.2245261,7.18357066 96.8296446,7.62387989 97.2402746,8.15936315 C97.6506438,8.69510503 97.9363108,9.3027447 98.0975366,9.98267007 C98.2585015,10.6625955 98.3391144,11.635931 98.3391144,12.9029353 L98.3391144,23.1007815 L98.3388535,23.1007815 Z"/>
                            <path d="M110.371436,6.69153642 L110.371436,10.1525868 L107.378845,10.1525868 L107.378845,16.7657598 C107.378845,18.1049205 107.407412,18.8853217 107.464545,19.1067048 C107.521679,19.3283465 107.651729,19.5110652 107.854174,19.6552487 C108.056881,19.7996908 108.303546,19.8715886 108.594561,19.8715886 C108.999712,19.8715886 109.586699,19.7325776 110.355783,19.4544263 L110.729889,22.8227595 C109.711401,23.2554393 108.558037,23.4717792 107.269796,23.4717792 C106.479973,23.4717792 105.768153,23.3403976 105.134468,23.0777639 C104.500652,22.8151301 104.035628,22.4751674 103.739526,22.0580051 C103.443423,21.6408428 103.238108,21.0769108 103.123841,20.3660797 C103.030315,19.8615022 102.983617,18.8417434 102.983617,17.3066742 L102.983617,10.1527161 L100.97299,10.1527161 L100.97299,6.69166573 L102.983617,6.69166573 L102.983617,3.43143777 L107.378845,0.897429083 L107.378845,6.69179504 L110.371436,6.69179504 L110.371436,6.69153642 Z"/>
                            <path d="M113.410724,4.46645541 L113.410724,0.449102479 L117.79043,0.449102479 L117.79043,4.46645541 L113.410724,4.46645541 Z M113.410724,23.1007815 L113.410724,6.69153642 L117.79043,6.69153642 L117.79043,23.1007815 L113.410724,23.1007815 L113.410724,23.1007815 Z"/>
                            <path d="M120.362216,6.69153642 L122.793647,6.69153642 L122.793647,5.45543777 C122.793647,4.07515564 122.941698,3.04492257 123.237801,2.3651265 C123.533903,1.68533044 124.07941,1.13161411 124.874451,0.704106823 C125.669362,0.276858165 126.674675,0.0629752108 127.89039,0.0629752108 C129.137281,0.0629752108 130.358084,0.248409405 131.553059,0.619277792 L130.960854,3.64764835 C130.264557,3.48303348 129.594349,3.40040276 128.950228,3.40040276 C128.316282,3.40040276 127.861563,3.5471725 127.586462,3.84071199 C127.310969,4.13438078 127.173353,4.6983128 127.173353,5.53263736 L127.173353,6.69153642 L130.446523,6.69153642 L130.446523,10.1062929 L127.173353,10.1062929 L127.173353,23.1009108 L122.793647,23.1009108 L122.793647,10.1062929 L120.362216,10.1062929 L120.362216,6.69153642 L120.362216,6.69153642 Z"/>
                            <path d="M130.836152,6.69153642 L135.496438,6.69153642 L139.45547,18.3418211 L143.320845,6.69153642 L147.856429,6.69153642 L142.011473,22.4827968 L140.967157,25.3412507 C140.582746,26.2991981 140.216336,27.0304605 139.868318,27.5352967 C139.520039,28.0398743 139.120235,28.4494071 138.668255,28.7637659 C138.216275,29.0778661 137.660203,29.3223961 137.00056,29.4977439 C136.340526,29.6728331 135.595182,29.7603777 134.764009,29.7603777 C133.9224,29.7603777 133.096313,29.6727038 132.285749,29.4977439 L131.89612,26.0983757 C132.581982,26.2320848 133.200014,26.2991981 133.751,26.2991981 C134.769226,26.2991981 135.522396,26.002943 136.0109,25.4106915 C136.499142,24.8181814 136.873249,24.063772 137.133219,23.1470754 L130.836152,6.69153642 Z"/>
                            <polygon points="148.292756 23.1007815 148.292756 18.7589834 152.672462 18.7589834 152.672462 23.1007815"/>
                            <path d="M157.161347,4.46645541 L157.161347,0.449102479 L161.541054,0.449102479 L161.541054,4.46645541 L157.161347,4.46645541 Z M157.161347,23.1007815 L157.161347,6.69153642 L161.541054,6.69153642 L161.541054,23.1007815 L157.161347,23.1007815 L157.161347,23.1007815 Z"/>
                            <path d="M173.620464,6.69153642 L173.620464,10.1525868 L170.627874,10.1525868 L170.627874,16.7657598 C170.627874,18.1049205 170.656441,18.8853217 170.713574,19.1067048 C170.770707,19.3283465 170.900758,19.5110652 171.103203,19.6552487 C171.305909,19.7996908 171.552574,19.8715886 171.843589,19.8715886 C172.248741,19.8715886 172.835728,19.7325776 173.604811,19.4544263 L173.978918,22.8227595 C172.96043,23.2554393 171.807066,23.4717792 170.518825,23.4717792 C169.729001,23.4717792 169.017181,23.3403976 168.383496,23.0777639 C167.749681,22.8151301 167.284657,22.4751674 166.988554,22.0580051 C166.692452,21.6408428 166.487137,21.0769108 166.37287,20.3660797 C166.279343,19.8615022 166.232645,18.8417434 166.232645,17.3066742 L166.232645,10.1527161 L164.222019,10.1527161 L164.222019,6.69166573 L166.232645,6.69166573 L166.232645,3.43143777 L170.627874,0.897429083 L170.627874,6.69179504 L173.620464,6.69179504 L173.620464,6.69153642 Z"/>
                        </g>
                        <g transform="translate(2.217507, 28.966011)" id="Shape">
                            <path d="M0.0503504447,7.6507769 L0.0503504447,0.100217225 L1.51025246,0.100217225 L1.51025246,2.81966011 C1.96053675,2.31146179 2.49391231,2.05736264 3.1105096,2.05736264 C3.78241411,2.05736264 4.33835606,2.29865985 4.77820502,2.78099566 C5.21805399,3.26346077 5.43810891,3.95618809 5.43810891,4.85917761 C5.43810891,5.79320215 5.21374941,6.51243854 4.76529131,7.01714541 C4.31670276,7.52185229 3.77197878,7.77427038 3.13138025,7.77427038 C2.81610298,7.77427038 2.50526073,7.6961656 2.19885349,7.53982673 C1.89231581,7.38361717 1.62817163,7.15279428 1.40655141,6.84709941 L1.40655141,7.65051827 L0.0503504447,7.65051827 L0.0503504447,7.6507769 Z M1.49981713,4.79736622 C1.49981713,5.36388449 1.58982181,5.78285714 1.76996162,6.05402556 C2.02275737,6.43860107 2.35877485,6.63088883 2.7778836,6.63088883 C3.09994383,6.63088883 3.37439289,6.49433478 3.60136121,6.22135599 C3.8281991,5.9483772 3.94168326,5.51828367 3.94168326,4.9312047 C3.94168326,4.30623716 3.82741645,3.85558293 3.59875238,3.5791127 C3.37021875,3.30277179 3.07737744,3.16453667 2.7207502,3.16453667 C2.37090591,3.16453667 2.07989078,3.29928035 1.84796567,3.5687677 C1.61591013,3.83864298 1.49981713,4.24804651 1.49981713,4.79736622 Z"/>
                            <path d="M8.00963395,7.6507769 L6.54973194,7.6507769 L6.54973194,2.18098543 L7.90580247,2.18098543 L7.90580247,2.9586711 C8.13785801,2.59129415 8.34656452,2.34922106 8.53179154,2.23245183 C8.71701857,2.1156826 8.92742081,2.05736264 9.16299828,2.05736264 C9.49549384,2.05736264 9.81585832,2.14839867 10.1242222,2.33034143 L9.67224216,3.59217327 C9.42622936,3.43428265 9.19769574,3.35527268 8.98651084,3.35527268 C8.78210891,3.35527268 8.60888251,3.4111357 8.46696208,3.52260312 C8.32491122,3.63419985 8.2131228,3.83592742 8.1318577,4.12778584 C8.05046216,4.41964426 8.00976439,5.03090468 8.00976439,5.96130846 L8.00976439,7.6507769 L8.00963395,7.6507769 Z"/>
                            <path d="M10.7529505,1.43924866 L10.7529505,0.100087912 L12.2128526,0.100087912 L12.2128526,1.43924866 L10.7529505,1.43924866 Z M10.7529505,7.6507769 L10.7529505,2.18098543 L12.2128526,2.18098543 L12.2128526,7.6507769 L10.7529505,7.6507769 Z"/>
                            <path d="M18.727887,7.6507769 L17.267985,7.6507769 L17.267985,4.85930693 C17.267985,4.26873652 17.2368095,3.88674725 17.1744584,3.71333913 C17.1121073,3.54006031 17.0107543,3.40518732 16.8705296,3.3091081 C16.7301744,3.21302888 16.5613831,3.16492461 16.364025,3.16492461 C16.1110988,3.16492461 15.8842609,3.23358957 15.6833809,3.3709195 C15.4823704,3.50824942 15.3447546,3.69019218 15.2702724,3.91687708 C15.1957903,4.14343266 15.1586144,4.56253463 15.1586144,5.17353642 L15.1586144,7.65090621 L13.6987124,7.65090621 L13.6987124,2.18111475 L15.054783,2.18111475 L15.054783,2.98453361 C15.5361123,2.36641963 16.1422743,2.05749195 16.8731384,2.05749195 C17.1951986,2.05749195 17.4896052,2.11503603 17.7563582,2.22999489 C18.0229808,2.34508306 18.2247739,2.4918528 18.3616071,2.67030411 C18.4983099,2.84888474 18.5935322,3.05138819 18.6472741,3.27807309 C18.7008856,3.50475799 18.7277566,3.82920317 18.7277566,4.25153795 L18.7277566,7.6507769 L18.727887,7.6507769 Z"/>
                            <path d="M20.0735222,8.01130028 L21.7412177,8.21212267 C21.7688713,8.40441043 21.8330485,8.53656785 21.9334885,8.60872425 C22.0720175,8.71178635 22.2902462,8.76325275 22.5881748,8.76325275 C22.9691946,8.76325275 23.2548616,8.70661385 23.4454367,8.59333606 C23.5735303,8.51781753 23.6705789,8.3958758 23.7363214,8.22764017 C23.7813238,8.1073795 23.8038902,7.88586711 23.8038902,7.5632323 L23.8038902,6.76498594 C23.3674327,7.35555635 22.8167084,7.65090621 22.1517173,7.65090621 C21.4105483,7.65090621 20.8234308,7.34016816 20.3904952,6.71869205 C20.0509558,6.22769231 19.8813818,5.61656121 19.8813818,4.88504012 C19.8813818,3.96834347 20.1039151,3.2678574 20.5489817,2.78371122 C20.9940484,2.29956504 21.5472511,2.05749195 22.2089811,2.05749195 C22.8911905,2.05749195 23.4540459,2.35452287 23.8974168,2.94858472 L23.8974168,2.18111475 L25.2637922,2.18111475 L25.2637922,7.08956044 C25.2637922,7.73508868 25.2100502,8.2175538 25.1028273,8.53682648 C24.9953434,8.85622847 24.8446834,9.10670687 24.6508472,9.28877894 C24.4568806,9.4707217 24.1979541,9.61322412 23.8740677,9.71628623 C23.5501813,9.81921901 23.1405948,9.87081472 22.6454386,9.87081472 C21.710303,9.87081472 21.0470076,9.7118896 20.6555525,9.39442729 C20.2640974,9.07670636 20.068435,8.6741564 20.068435,8.1866481 C20.0683046,8.1382852 20.0700003,8.07983593 20.0735222,8.01130028 Z M21.3775466,4.80253872 C21.3775466,5.38289343 21.4910307,5.80781446 21.7178686,6.07730181 C21.9447065,6.34691848 22.2243732,6.48153284 22.5569992,6.48153284 C22.9136265,6.48153284 23.2149465,6.34342704 23.4609593,6.06695681 C23.7068416,5.7906159 23.829848,5.38108306 23.829848,4.83848761 C23.829848,4.27196933 23.7120593,3.85144493 23.4766123,3.57665576 C23.2410348,3.30199591 22.9432367,3.16453667 22.5829571,3.16453667 C22.2329824,3.16453667 21.9447065,3.29928035 21.7178686,3.5687677 C21.4909003,3.83864298 21.3775466,4.24972757 21.3775466,4.80253872 Z"/>
                            <path d="M29.5550588,2.18098543 L30.900694,2.18098543 L30.900694,2.9277654 C31.3820234,2.34753999 31.9553141,2.05736264 32.6204356,2.05736264 C32.9736714,2.05736264 33.2802091,2.12951904 33.5400487,2.27370253 C33.7997578,2.41788602 34.0128994,2.63603629 34.1790819,2.92789471 C34.4214423,2.63603629 34.6829777,2.41801533 34.9635575,2.27370253 C35.2441373,2.12938973 35.5436311,2.05736264 35.8624303,2.05736264 C36.2675818,2.05736264 36.6105127,2.13895886 36.8910925,2.30202198 C37.1716723,2.4650851 37.3811615,2.70457194 37.5196904,3.02048249 C37.6201304,3.25402096 37.6703504,3.63174291 37.6703504,4.15351904 L37.6703504,7.65064758 L36.2104484,7.65064758 L36.2104484,4.52438743 C36.2104484,3.98192129 36.1602284,3.6316136 36.0597884,3.47372297 C35.924651,3.26772809 35.7168575,3.16466599 35.4362777,3.16466599 C35.2318758,3.16466599 35.0396049,3.22647738 34.8595956,3.35010018 C34.6794558,3.47372297 34.549536,3.65488985 34.4699666,3.89347151 C34.3902668,4.13218247 34.3504821,4.50899923 34.3504821,5.02405111 L34.3504821,7.6507769 L32.8905801,7.6507769 L32.8905801,4.65318272 C32.8905801,4.12093228 32.8646222,3.77760746 32.8127065,3.62307897 C32.7607908,3.46855047 32.6801779,3.35359162 32.5711287,3.27794378 C32.4620796,3.20255456 32.313898,3.16466599 32.1268447,3.16466599 C31.9017026,3.16466599 31.6991269,3.22479632 31.518987,3.34492768 C31.3388472,3.46518835 31.2098405,3.63846716 31.1319669,3.86502274 C31.0539629,4.09170764 31.0150913,4.46761922 31.0150913,4.9930161 L31.0150913,7.65064758 L29.5551893,7.65064758 L29.5551893,2.18098543 L29.5550588,2.18098543 Z"/>
                            <path d="M42.320201,5.90984206 L43.7748853,6.15191515 C43.5878321,6.68067416 43.2925124,7.08335344 42.8890566,7.35969435 C42.4854704,7.63616458 41.9806616,7.77439969 41.3746301,7.77439969 C40.4152323,7.77439969 39.7051084,7.46366164 39.2445193,6.84218554 C38.8808482,6.34433223 38.6990126,5.71600256 38.6990126,4.95706721 C38.6990126,4.05058625 38.9379816,3.34066036 39.4160499,2.82741886 C39.8939878,2.31417736 40.4983236,2.05736264 41.2291877,2.05736264 C42.0500565,2.05736264 42.6976989,2.32607411 43.1722453,2.86336775 C43.6466613,3.4007907 43.8736296,4.22399438 43.8527589,5.33297879 L40.1951774,5.33297879 C40.2056127,5.76229645 40.323271,6.09618145 40.5484132,6.3347631 C40.7735553,6.57347406 41.0540047,6.69270023 41.3901526,6.69270023 C41.6186862,6.69270023 41.8109571,6.63088883 41.9668348,6.50726604 C42.1228429,6.38377255 42.2405012,6.18463123 42.320201,5.90984206 Z M42.4034227,4.44718784 C42.3929874,4.02834449 42.2839382,3.70984769 42.0761448,3.49182673 C41.8683514,3.27380578 41.6154252,3.1647953 41.3176271,3.1647953 C40.9989583,3.1647953 40.7357273,3.27988347 40.5279338,3.50980118 C40.3201404,3.7398482 40.2180047,4.05239663 40.2213962,4.44718784 L42.4034227,4.44718784 L42.4034227,4.44718784 Z"/>
                            <path d="M46.1336602,3.84976386 L44.8087652,3.61286328 C44.9577294,3.08410427 45.2140471,2.69267519 45.5777182,2.43844672 C45.9413893,2.18447687 46.4816783,2.05736264 47.1987156,2.05736264 C47.8498799,2.05736264 48.3347312,2.13378635 48.6533999,2.28650447 C48.9719382,2.4393519 49.1962977,2.63332073 49.3262175,2.86854025 C49.4561373,3.10375978 49.5210972,3.53553437 49.5210972,4.16386404 L49.5054442,5.85320317 C49.5054442,6.33398722 49.5287933,6.68843292 49.5756218,6.91679888 C49.6224503,7.14516484 49.7098462,7.38982418 49.8380702,7.6507769 L48.3936907,7.6507769 C48.3556018,7.55469767 48.3087733,7.41219525 48.2534661,7.22326961 C48.2292039,7.13740608 48.2118552,7.08076719 48.2015503,7.05335293 C47.952146,7.29374495 47.685393,7.47400664 47.4014218,7.594138 C47.11732,7.71426936 46.8144347,7.77439969 46.492244,7.77439969 C45.924171,7.77439969 45.4764956,7.62168157 45.1492177,7.31598671 C44.8219398,7.01042116 44.6582356,6.62416458 44.6582356,6.15708766 C44.6582356,5.84803067 44.7325873,5.57246563 44.8815516,5.33039254 C45.0305158,5.08831945 45.2392223,4.90288525 45.5075406,4.77421927 C45.7759894,4.64542397 46.1630095,4.53305137 46.6687315,4.43684283 C47.3509409,4.30985791 47.8237915,4.19140762 48.0870226,4.08136264 L48.0870226,3.93717915 C48.0870226,3.65915717 48.0177582,3.46079172 47.8792292,3.34234143 C47.7405698,3.22389113 47.4791649,3.16466599 47.0946232,3.16466599 C46.834914,3.16466599 46.6323383,3.2153565 46.4867655,3.31660823 C46.341584,3.41798927 46.2236648,3.59566471 46.1336602,3.84976386 Z M48.0871531,5.02405111 C47.9000999,5.08586251 47.6039975,5.15969997 47.1987156,5.24543419 C46.7934336,5.33129773 46.5285068,5.41535088 46.4038046,5.49785229 C46.21336,5.63182009 46.1181376,5.80173677 46.1181376,6.00773166 C46.1181376,6.21036443 46.1943155,6.38545362 46.3466712,6.53312855 C46.499027,6.68080348 46.6929936,6.75464094 46.9285711,6.75464094 C47.1918022,6.75464094 47.4429022,6.66877741 47.6818711,6.49705035 C47.858489,6.36657398 47.974582,6.20687299 48.0298892,6.01807667 C48.0679782,5.89445387 48.0870226,5.65936366 48.0870226,5.31241809 L48.0870226,5.02405111 L48.0871531,5.02405111 Z"/>
                            <path d="M55.9788678,7.6507769 L54.5190963,7.6507769 L54.5190963,4.85930693 C54.5190963,4.26873652 54.4879207,3.88674725 54.4255697,3.71333913 C54.3630882,3.54006031 54.2618655,3.40518732 54.1216408,3.3091081 C53.9812857,3.21302888 53.8124943,3.16492461 53.6151362,3.16492461 C53.36221,3.16492461 53.1352417,3.23358957 52.9343617,3.3709195 C52.7334817,3.50824942 52.5957354,3.69019218 52.5213837,3.91687708 C52.4469015,4.14343266 52.4097257,4.56253463 52.4097257,5.17353642 L52.4097257,7.65090621 L50.9498237,7.65090621 L50.9498237,2.18111475 L52.3058942,2.18111475 L52.3058942,2.98453361 C52.7870932,2.36641963 53.3933856,2.05749195 54.1241192,2.05749195 C54.4463099,2.05749195 54.7407165,2.11503603 55.0073391,2.22999489 C55.2739616,2.34508306 55.4757547,2.4918528 55.6127184,2.67030411 C55.7494211,2.84888474 55.844513,3.05138819 55.898255,3.27807309 C55.9519969,3.50475799 55.9787374,3.82920317 55.9787374,4.25153795 L55.9787374,7.6507769 L55.9788678,7.6507769 Z"/>
                            <path d="M57.4596405,1.43924866 L57.4596405,0.100087912 L58.9195425,0.100087912 L58.9195425,1.43924866 L57.4596405,1.43924866 Z M57.4596405,7.6507769 L57.4596405,2.18098543 L58.9195425,2.18098543 L58.9195425,7.6507769 L57.4596405,7.6507769 Z"/>
                            <path d="M65.4347074,7.6507769 L63.9748054,7.6507769 L63.9748054,4.85930693 C63.9748054,4.26873652 63.9437603,3.88674725 63.8812788,3.71333913 C63.8189278,3.54006031 63.7177051,3.40518732 63.57735,3.3091081 C63.4371253,3.21302888 63.2683339,3.16492461 63.0708454,3.16492461 C62.8180496,3.16492461 62.5910813,3.23358957 62.3902013,3.3709195 C62.1893213,3.50824942 62.051575,3.69019218 61.9770928,3.91687708 C61.9026107,4.14356197 61.8655653,4.56253463 61.8655653,5.17353642 L61.8655653,7.65090621 L60.4056633,7.65090621 L60.4056633,2.18111475 L61.7617338,2.18111475 L61.7617338,2.98453361 C62.2430632,2.36641963 62.8492252,2.05749195 63.5800892,2.05749195 C63.9021495,2.05749195 64.1965561,2.11503603 64.4633091,2.22999489 C64.7300621,2.34495374 64.9317248,2.4918528 65.0686884,2.67030411 C65.2055216,2.84888474 65.3006135,3.05138819 65.3543554,3.27807309 C65.4079669,3.50475799 65.4348379,3.82920317 65.4348379,4.25153795 L65.4348379,7.6507769 L65.4347074,7.6507769 Z"/>
                            <path d="M66.7802122,8.01130028 L68.4479076,8.21212267 C68.4755612,8.40441043 68.5396081,8.53656785 68.6401785,8.60872425 C68.7787074,8.71178635 68.9968057,8.76325275 69.2948647,8.76325275 C69.6758845,8.76325275 69.9615516,8.70661385 70.1521267,8.59333606 C70.2800899,8.51781753 70.3772688,8.3958758 70.4430114,8.22764017 C70.4880137,8.1073795 70.5105801,7.88586711 70.5105801,7.5632323 L70.5105801,6.76498594 C70.0741226,7.35555635 69.5235288,7.65090621 68.8584072,7.65090621 C68.1171078,7.65090621 67.5301208,7.34016816 67.0971852,6.71869205 C66.7576458,6.22769231 66.5880718,5.61656121 66.5880718,4.88504012 C66.5880718,3.96834347 66.8106051,3.2678574 67.2556717,2.78371122 C67.7006079,2.29956504 68.253941,2.05749195 68.9156711,2.05749195 C69.5978805,2.05749195 70.1607358,2.35452287 70.6041067,2.94858472 L70.6041067,2.18111475 L71.9706126,2.18111475 L71.9706126,7.08956044 C71.9706126,7.73508868 71.9168707,8.2175538 71.8095172,8.53682648 C71.7021638,8.85622847 71.5513734,9.10670687 71.3575372,9.28877894 C71.1635706,9.4707217 70.9046441,9.61322412 70.5808881,9.71628623 C70.2570017,9.81921901 69.8474152,9.87081472 69.3521286,9.87081472 C68.4168625,9.87081472 67.7535672,9.7118896 67.3622425,9.39442729 C66.9707873,9.07670636 66.775125,8.6741564 66.775125,8.1866481 C66.7749945,8.1382852 66.7768207,8.07983593 66.7802122,8.01130028 Z M68.0842365,4.80253872 C68.0842365,5.38289343 68.1975903,5.80781446 68.4245586,6.07730181 C68.651266,6.34691848 68.9310632,6.48153284 69.2635587,6.48153284 C69.6203164,6.48153284 69.9216364,6.34342704 70.1676492,6.06695681 C70.4135316,5.7906159 70.536538,5.38108306 70.536538,4.83848761 C70.536538,4.27196933 70.4187493,3.85144493 70.1831718,3.57665576 C69.9475943,3.30199591 69.6497962,3.16453667 69.2895166,3.16453667 C68.9396723,3.16453667 68.651266,3.29928035 68.4245586,3.5687677 C68.1975903,3.83864298 68.0842365,4.24972757 68.0842365,4.80253872 Z"/>
                            <path d="M78.9012339,2.18098543 L78.9012339,3.33471199 L77.9037472,3.33471199 L77.9037472,5.53910299 C77.9037472,5.98548991 77.9132695,6.24553744 77.9323139,6.3193749 C77.9513584,6.39321237 77.9947954,6.45411858 78.0622337,6.50222285 C78.1298025,6.55032711 78.2119807,6.57437925 78.3090292,6.57437925 C78.4441666,6.57437925 78.639829,6.52808536 78.8961467,6.43523895 L79.0208488,7.5580598 C78.6813094,7.70224329 78.2968981,7.77439969 77.8674845,7.77439969 C77.604123,7.77439969 77.3668497,7.73056274 77.1556648,7.64301814 C76.9443495,7.55547355 76.7893849,7.44206645 76.6907711,7.30305546 C76.5921573,7.16404447 76.5236755,6.97602402 76.4855865,6.73912343 C76.454411,6.57088781 76.4388884,6.23105443 76.4388884,5.71936468 L76.4388884,3.33471199 L75.7685492,3.33471199 L75.7685492,2.18098543 L76.4388884,2.18098543 L76.4388884,1.09424278 L77.9038777,0.249573217 L77.9038777,2.18098543 L78.9012339,2.18098543 L78.9012339,2.18098543 Z"/>
                            <path d="M79.5765299,4.83848761 C79.5765299,4.35783286 79.6960144,3.89256632 79.9351137,3.44281728 C80.1740827,2.99293892 80.5125786,2.64961411 80.9507318,2.41271352 C81.3887546,2.17568362 81.8780409,2.05723332 82.4184603,2.05723332 C83.2530254,2.05723332 83.9373219,2.3259448 84.470567,2.86323844 C85.0039426,3.40066139 85.2706956,4.07968157 85.2706956,4.90016969 C85.2706956,5.72764068 85.0014642,6.41364375 84.462871,6.95779095 C83.9242777,7.50193815 83.2462425,7.77414107 82.4288956,7.77414107 C81.9230432,7.77414107 81.4408007,7.66086328 80.9819073,7.43417838 C80.5228834,7.2076228 80.1740827,6.87541886 79.9351137,6.43756657 C79.6960144,5.99997291 79.5765299,5.46694659 79.5765299,4.83848761 Z M81.0728251,4.91581651 C81.0728251,5.45841196 81.2026144,5.87376386 81.4623236,6.16226016 C81.7221632,6.45062714 82.0423973,6.59493994 82.4235475,6.59493994 C82.8045673,6.59493994 83.1240187,6.45075645 83.3821626,6.16226016 C83.640176,5.87389318 83.7691827,5.45492052 83.7691827,4.90560082 C83.7691827,4.36985893 83.640176,3.95786915 83.3821626,3.66950217 C83.1240187,3.38113519 82.8045673,3.23682239 82.4235475,3.23682239 C82.0423973,3.23682239 81.7221632,3.38100588 81.4623236,3.66950217 C81.2026144,3.95786915 81.0728251,4.37335037 81.0728251,4.91581651 Z"/>
                            <path d="M91.9001273,2.18098543 L91.9001273,3.33471199 L90.9026407,3.33471199 L90.9026407,5.53910299 C90.9026407,5.98548991 90.9121629,6.24553744 90.9312074,6.3193749 C90.9502518,6.39321237 90.9936889,6.45411858 91.0611272,6.50222285 C91.1286959,6.55032711 91.2108741,6.57437925 91.3079226,6.57437925 C91.4430601,6.57437925 91.6387224,6.52808536 91.8950401,6.43523895 L92.0197422,7.5580598 C91.6802028,7.70224329 91.2957915,7.77439969 90.8663779,7.77439969 C90.6030164,7.77439969 90.3657432,7.73056274 90.1545583,7.64301814 C89.9432429,7.55547355 89.7882784,7.44206645 89.6896645,7.30305546 C89.5910507,7.16404447 89.5225689,6.97602402 89.48448,6.73912343 C89.4533044,6.57088781 89.4377819,6.23105443 89.4377819,5.71936468 L89.4377819,3.33471199 L88.7674427,3.33471199 L88.7674427,2.18098543 L89.4377819,2.18098543 L89.4377819,1.09424278 L90.9027711,0.249573217 L90.9027711,2.18098543 L91.9001273,2.18098543 L91.9001273,2.18098543 Z"/>
                            <path d="M94.3678209,0.100087912 L94.3678209,2.87616969 C94.8388454,2.33021211 95.4018312,2.05723332 96.056387,2.05723332 C96.392274,2.05723332 96.6952897,2.11904472 96.9655647,2.24266752 C97.2357092,2.36629031 97.439198,2.52418094 97.5760312,2.71646869 C97.7128644,2.90875645 97.806391,3.12173422 97.856611,3.35514337 C97.906831,3.58868183 97.9318758,3.95088628 97.9318758,4.44188602 L97.9318758,7.65064758 L96.4719738,7.65064758 L96.4719738,4.76128801 C96.4719738,4.18791618 96.4441897,3.82390135 96.3888825,3.66937286 C96.3334448,3.51484436 96.2356137,3.39212676 96.0952585,3.30109072 C95.9550339,3.210184 95.7791986,3.16466599 95.5680137,3.16466599 C95.3255229,3.16466599 95.1089899,3.22311526 94.9185452,3.33975518 C94.72797,3.45652441 94.5886584,3.63251878 94.5002191,3.86773831 C94.4119101,4.10295783 94.3676904,4.45067927 94.3676904,4.91064401 L94.3676904,7.65064758 L92.9079189,7.65064758 L92.9079189,0.100087912 L94.3678209,0.100087912 Z"/>
                            <path d="M102.607815,5.90984206 L104.062499,6.15191515 C103.875446,6.68067416 103.580257,7.08335344 103.17667,7.35969435 C102.773215,7.63616458 102.268275,7.77439969 101.662374,7.77439969 C100.702976,7.77439969 99.9927221,7.46366164 99.5322634,6.84218554 C99.1685923,6.34433223 98.9866263,5.71600256 98.9866263,4.95706721 C98.9866263,4.05058625 99.2255953,3.34066036 99.7035332,2.82741886 C100.181601,2.31417736 100.785937,2.05736264 101.516801,2.05736264 C102.33767,2.05736264 102.985313,2.32607411 103.459859,2.86336775 C103.934405,3.4007907 104.161243,4.22399438 104.140503,5.33297879 L100.482922,5.33297879 C100.493357,5.76229645 100.611015,6.09618145 100.836288,6.3347631 C101.06143,6.57347406 101.341879,6.69270023 101.677897,6.69270023 C101.90643,6.69270023 102.098701,6.63088883 102.254579,6.50726604 C102.410457,6.38377255 102.528245,6.18463123 102.607815,5.90984206 Z M102.691036,4.44718784 C102.680601,4.02834449 102.571552,3.70984769 102.363758,3.49182673 C102.155835,3.27380578 101.903039,3.1647953 101.605241,3.1647953 C101.286572,3.1647953 101.023341,3.27988347 100.815548,3.50980118 C100.607624,3.7398482 100.505488,4.05239663 100.508879,4.44718784 L102.691036,4.44718784 L102.691036,4.44718784 Z"/>
                            <polygon points="109.31512 7.6507769 107.569421 2.18098543 108.987712 2.18098543 110.021722 5.76565857 110.97238 2.18098543 112.380366 2.18098543 113.299979 5.76565857 114.35473 2.18098543 115.793761 2.18098543 114.022234 7.6507769 112.619335 7.6507769 111.668677 4.13295834 110.733411 7.6507769"/>
                            <path d="M119.758011,5.90984206 L121.212695,6.15191515 C121.025642,6.68067416 120.730453,7.08335344 120.326867,7.35969435 C119.923411,7.63616458 119.418472,7.77439969 118.81257,7.77439969 C117.853173,7.77439969 117.142918,7.46366164 116.68246,6.84218554 C116.318789,6.34433223 116.136823,5.71600256 116.136823,4.95706721 C116.136823,4.05058625 116.375792,3.34066036 116.853729,2.82741886 C117.331798,2.31417736 117.936134,2.05736264 118.666998,2.05736264 C119.487866,2.05736264 120.135509,2.32607411 120.610055,2.86336775 C121.084602,3.4007907 121.31144,4.22399438 121.290699,5.33297879 L117.633118,5.33297879 C117.643553,5.76229645 117.761211,6.09618145 117.986484,6.3347631 C118.211626,6.57347406 118.492076,6.69270023 118.828093,6.69270023 C119.056627,6.69270023 119.248897,6.63088883 119.404775,6.50726604 C119.560653,6.38377255 119.678311,6.18463123 119.758011,5.90984206 Z M119.841102,4.44718784 C119.830667,4.02834449 119.721618,3.70984769 119.513824,3.49182673 C119.3059,3.27380578 119.053105,3.1647953 118.755307,3.1647953 C118.436638,3.1647953 118.173407,3.27988347 117.965613,3.50980118 C117.757689,3.7398482 117.655554,4.05239663 117.658945,4.44718784 L119.841102,4.44718784 L119.841102,4.44718784 Z"/>
                            <path d="M122.417975,7.6507769 L122.417975,0.100217225 L123.877877,0.100217225 L123.877877,2.81966011 C124.328031,2.31146179 124.861537,2.05736264 125.478134,2.05736264 C126.149909,2.05736264 126.705851,2.29865985 127.14583,2.78099566 C127.585548,3.26346077 127.805603,3.95618809 127.805603,4.85917761 C127.805603,5.79320215 127.581374,6.51243854 127.132916,7.01714541 C126.684328,7.52185229 126.139734,7.77427038 125.499005,7.77427038 C125.183728,7.77427038 124.872886,7.6961656 124.566478,7.53982673 C124.25981,7.38361717 123.995797,7.15279428 123.774176,6.84709941 L123.774176,7.65051827 L122.417975,7.65051827 L122.417975,7.6507769 Z M123.867572,4.79736622 C123.867572,5.36388449 123.957577,5.78285714 124.137717,6.05402556 C124.390513,6.43860107 124.72653,6.63088883 125.145639,6.63088883 C125.46783,6.63088883 125.742279,6.49433478 125.969117,6.22135599 C126.195824,5.9483772 126.309308,5.51828367 126.309308,4.9312047 C126.309308,4.30623716 126.195041,3.85558293 125.966377,3.5791127 C125.737844,3.30277179 125.445133,3.16453667 125.088506,3.16453667 C124.738531,3.16453667 124.447646,3.29928035 124.215721,3.5687677 C123.983535,3.83864298 123.867572,4.24804651 123.867572,4.79736622 Z"/>
                        </g>
                    </g>
                </g>
            </g>
        </g>
    </g>
</svg>